<svg version="1.2" xmlns="http://www.w3.org/2000/svg" viewBox="0 0 240 39" width="240" height="39"><style>.s0{fill:#ff52c1}.s1{fill:#00252e}</style><path fill-rule="evenodd" class="s0" d="m38.8 2.2c1.4 0.4 2.8 0.7 4.1 1.7c1.2 1.1 2 3.2 1.9 5.3c-0.1 5.2-0.3 10.5-1.7 14.7c-0.5 1.6-2.2 3.7-4.7 3.7c-7.1 0.6-13.3 1-20.5 0.8c-2.7 2.8-4.1 4.7-6.3 8.9c-0.5 0.9-1.5 1.3-2.3 1.2c-0.5 0-0.9-0.1-1.3-0.4c-0.4-0.3-0.7-0.9-0.7-1.6l0.3-8.7q-0.5 0-1-0.1q-0.6-0.1-1.1-0.1q-0.5-0.1-1-0.2q-0.6 0-1.1-0.1c-1.1-0.2-2-0.7-2.6-1.5c-0.5-0.8-0.6-2.1-0.7-3.2c-0.1-4.8-0.2-9.2 0.6-13.6c0.1-0.8 0.3-1.6 0.8-2.4c0.5-0.8 1.5-1.5 2.5-1.7c8.2-2.3 16.2-4 24-4c3.3 0 7 0.5 10.8 1.3zm-10.9 0.7c-7.3 0-15.1 1.7-23.1 3.9c-0.6 0.1-1.2 0.2-1.6 0.9c-0.3 0.5-0.5 1.1-0.6 1.7c-0.7 4.2-0.6 8.3-0.4 13.1c0 0.8 0 1.3 0.3 2.2c0.2 0.2 0.5 0.4 1.2 0.6q0.6 0.1 1.3 0.1q0.6 0.1 1.2 0.2q0.7 0.1 1.3 0.1q0.6 0.1 1.3 0.2c0.5 0 0.9 0.5 0.9 1l-0.3 9.5c0 0 0 0.1 0.1 0.1q0.2 0 0.3-0.2c2.3-4.4 3.9-6.6 6.9-9.6q0.1-0.1 0.2-0.2q0.1 0 0.2-0.1q0.1 0 0.2 0q0.1 0 0.2 0c7.3 0.2 13.5-0.2 20.7-0.8c1.7-0.1 2.5-1.1 3-2.5c1.2-3.8 1.4-8.8 1.6-13.9c0-1.4 0-2.3-1.2-3.7c-0.8-0.6-2-0.9-3.3-1.3c-3-0.8-6.8-1.2-10.4-1.3zm-14.5 8.1c0.8 0 1.7 0.5 2.2 1.2c1 1.5 0.9 3.6-0.5 4.8c-0.7 0.5-1.4 0.9-2.5 0.8c-0.8-0.1-1.5-0.6-2-1.2c-0.8-1.2-0.9-3 0.2-4.3c0.6-0.8 1.4-1.3 2.6-1.3zm9.4 0.2q0 0 0.1 0q0 0 0.1 0q0.1 0 0.1 0c1 0.2 1.7 0.9 2.1 1.7c0.5 0.9 0.7 2.1 0 3.1c-1.3 2.2-4.6 2.3-5.6 0.1c-0.5-1.2-0.1-2.4 0.5-3.3c0.6-0.8 1.4-1.6 2.5-1.6q0.1 0 0.2 0zm10.2 0.3q0.4 0.1 0.8 0.3q0.3 0.2 0.6 0.4q0.3 0.3 0.6 0.6c0.6 0.8 0.7 1.8 0.4 2.8c-0.3 1-1.1 2-2.3 2.3c-1.1 0.2-2.2 0-2.9-0.6c-0.7-0.6-1.1-1.5-1.2-2.3c-0.2-1.8 0.9-3.1 2.2-3.5q0.5-0.1 1.1-0.1q0.4 0 0.7 0.1zm-20.7 2.1c-0.4 0.5-0.3 1.3 0 1.8q0.3 0.4 0.6 0.4c0.2 0 0.5 0 0.9-0.4c0.5-0.4 0.6-1.4 0.1-2c-0.2-0.3-0.4-0.4-0.6-0.4c-0.3 0.1-0.7 0.3-1 0.6zm9.5 0.3c-0.3 0.5-0.4 1.2-0.3 1.3c0.2 0.5 1.4 0.7 2-0.2c0.2-0.4 0.1-0.7-0.1-1.1c-0.2-0.4-0.6-0.6-0.6-0.6c-0.2-0.1-0.6 0.1-1 0.6zm10-0.4c-0.6 0.1-0.9 0.4-0.8 1.3c0 0.3 0.2 0.7 0.5 0.9c0.2 0.2 0.6 0.3 1.2 0.2c0.4-0.1 0.6-0.4 0.7-0.8c0.2-0.5 0-1-0.1-1.1c-0.2-0.4-0.9-0.7-1.5-0.5z" /><path fill-rule="evenodd" class="s1" d="m57.6 5q0-0.4 0.3-0.7q0.1-0.1 0.1-0.1q0.1-0.1 0.2-0.1q0.1-0.1 0.2-0.1q0.1 0 0.2 0h6.8q0.4 0 0.7 0.3q0.1 0 0.2 0.1q0.1 0.1 0.1 0.2q0.1 0.1 0.1 0.2q0 0.1 0 0.2v10.9h11.4v-10.9q0-0.4 0.3-0.7q0.3-0.3 0.8-0.3h6.7q0.5 0 0.8 0.2q0.3 0.2 0.3 0.8v32.1q0 0.5-0.3 0.8q-0.3 0.2-0.7 0.2h-6.8q-0.5 0-0.8-0.2q-0.3-0.3-0.3-0.8v-13.1h-11.4v13.1q0 0.5-0.3 0.7q-0.3 0.3-0.8 0.3h-6.8q-1 0-1-0.9zm62.9 32.7q-0.3 0.3-0.6 0.4q-0.1 0-0.2 0q-0.1 0-0.2 0q0 0-0.1 0q-0.1 0-0.2 0h-3.4q-0.5 0-0.8-0.1q-0.3-0.2-0.5-0.4q0-0.1-0.1-0.2q0 0-0.1-0.1q0-0.1 0-0.1q-0.1-0.1-0.1-0.2q0-0.1-0.1-0.2q0 0 0-0.1q-0.1-0.1-0.1-0.2q0-0.1 0-0.2l-0.8-2.9q-0.3 0.7-1 1.6q-0.1 0.3-0.3 0.5q-0.2 0.2-0.4 0.4q-0.2 0.2-0.5 0.4q-0.2 0.2-0.4 0.4q-1 0.8-2.4 1.3q-1.4 0.6-3.2 0.6q-2.7 0-4.8-1q-0.5-0.3-1-0.6q-0.5-0.3-1-0.6q-0.4-0.4-0.9-0.7q-0.4-0.4-0.7-0.9q-1.6-1.7-2.4-4.1q-0.8-2.3-0.8-4.9v-15.1q0-0.9 0.4-1.3q0.3-0.5 1.2-0.5h5.3q1 0 1.3 0.4q0.4 0.3 0.4 1.3v14.9q0 1 0.5 1.9q0.4 0.9 1.1 1.6q0.8 0.7 1.7 1q0.9 0.4 1.9 0.4q0.8 0 1.7-0.4q0.2-0.1 0.5-0.2q0.2-0.1 0.4-0.2q0.2-0.2 0.4-0.3q0.2-0.1 0.3-0.3q0.8-0.7 1.3-1.5q0.5-0.9 0.5-1.9v-15q0-0.3 0.1-0.7q0.2-0.4 0.5-0.6q0.3-0.2 0.5-0.3q0.3-0.1 0.6-0.1h5.2q1 0 1.4 0.5q0.5 0.5 0.5 1.3v25.7q0 0.5-0.2 0.8q-0.2 0.4-0.6 0.6zm26.7-3.2q-0.6 0.7-1.3 1.4q-0.8 0.7-1.7 1.3q-0.2 0.2-0.4 0.3q-0.3 0.1-0.5 0.3q-0.3 0.1-0.5 0.2q-0.3 0.1-0.5 0.2q-0.3 0.1-0.6 0.2q-0.2 0.1-0.5 0.1q-0.3 0.1-0.6 0.1q-0.3 0-0.5 0q-3.2 0-5.8-1.1q-0.6-0.3-1.2-0.7q-0.7-0.3-1.2-0.7q-0.6-0.4-1.1-0.9q-0.5-0.4-1-1q-1.9-2-3-4.7q-1.1-2.8-1.1-6q0-3.2 1.1-5.9q1.1-2.8 3-4.8q0.5-0.5 1-1q0.5-0.4 1.1-0.8q0.5-0.4 1.2-0.8q0.6-0.3 1.2-0.6q2.6-1.1 5.8-1.1q1.2 0 2.3 0.3q0.2 0.1 0.5 0.2q0.2 0.1 0.5 0.2q0.2 0.2 0.4 0.3q0.3 0.1 0.5 0.3q0.8 0.5 1.6 1.3q0.7 0.7 1.3 1.4v-10.5q0-0.8 0.5-1.3q0.4-0.5 1.3-0.5h5.2q0.3 0 0.6 0.2q0.4 0.1 0.6 0.3q0.3 0.2 0.5 0.6q0.2 0.3 0.2 0.7v34.3q0 1.8-1.9 1.8h-4.5q-0.5 0-0.7-0.1q-0.1 0-0.1-0.1q-0.1 0-0.2-0.1q0 0-0.1 0q0-0.1 0-0.2q-0.1 0-0.1-0.1q-0.1 0-0.1-0.1q-0.1-0.1-0.1-0.2q0 0-0.1-0.1q0-0.1 0-0.2q-0.1-0.1-0.1-0.2q-0.1-0.1-0.1-0.2q-0.1-0.1-0.1-0.2zm-13.2-11q0 0.4 0 0.7q0 0.4 0.1 0.8q0.1 0.3 0.1 0.7q0.1 0.3 0.3 0.7q0.4 1.3 1.3 2.2q0.2 0.3 0.5 0.5q0.2 0.2 0.5 0.4q0.2 0.2 0.5 0.4q0.3 0.1 0.6 0.3q1.2 0.5 2.7 0.5q1.5 0 2.8-0.5q0.3-0.1 0.6-0.3q0.3-0.1 0.6-0.3q0.3-0.2 0.5-0.4q0.3-0.2 0.6-0.5q0.2-0.2 0.4-0.4q0.2-0.3 0.4-0.6q0.2-0.3 0.4-0.5q0.2-0.3 0.3-0.6q0.6-1.3 0.7-2.8v-0.3q0-0.3-0.1-0.7q0-0.4-0.1-0.7q0-0.4-0.1-0.7q-0.2-0.3-0.3-0.7q-0.1-0.3-0.3-0.6q-0.1-0.3-0.3-0.6q-0.2-0.3-0.5-0.6q-0.2-0.3-0.4-0.5q-0.3-0.3-0.5-0.5q-0.3-0.2-0.6-0.4q-0.3-0.2-0.6-0.4q-0.3-0.2-0.6-0.3q-0.4-0.2-0.7-0.3q-0.4-0.1-0.7-0.2q-0.4 0-0.7-0.1q-0.4 0-0.8 0q-1.5 0-2.7 0.6q-1.2 0.6-2.1 1.6q-0.2 0.2-0.4 0.5q-0.2 0.3-0.4 0.6q-0.2 0.3-0.3 0.6q-0.1 0.3-0.2 0.6q-0.2 0.4-0.3 0.7q0 0.3-0.1 0.7q-0.1 0.4-0.1 0.7q0 0.4 0 0.7zm48.7 11q-0.6 0.6-1.4 1.4q-0.7 0.7-1.6 1.3q-0.2 0.2-0.5 0.3q-0.2 0.1-0.4 0.3q-0.3 0.1-0.5 0.2q-0.3 0.1-0.5 0.2q-0.3 0.1-0.6 0.2q-0.3 0.1-0.5 0.1q-0.3 0.1-0.6 0.1q-0.3 0-0.6 0q-3.1 0-5.7-1.2q-0.7-0.2-1.3-0.6q-0.6-0.3-1.2-0.7q-0.5-0.4-1-0.9q-0.6-0.4-1.1-1q-1.8-2-2.9-4.7q-1.1-2.8-1.1-6q0-3.2 1.1-5.9q1.1-2.8 2.9-4.8q0.5-0.5 1.1-1q0.5-0.4 1-0.8q0.6-0.4 1.2-0.8q0.6-0.3 1.3-0.6q2.6-1.2 5.7-1.2q1.3 0 2.3 0.4q0.3 0.1 0.5 0.2q0.3 0.1 0.5 0.2q0.3 0.1 0.5 0.3q0.2 0.1 0.4 0.3q0.9 0.5 1.6 1.3q0.8 0.7 1.4 1.4v-10.5q0-0.8 0.4-1.3q0.5-0.5 1.4-0.5h5.2q0.3 0 0.6 0.1q0.3 0.2 0.6 0.4q0.3 0.2 0.5 0.6q0.1 0.3 0.1 0.7v34.3q0 1.8-1.8 1.8h-4.5q-0.5 0-0.8-0.1q0-0.1-0.1-0.1q0 0-0.1-0.1q0 0-0.1-0.1q0 0-0.1-0.1q0 0-0.1-0.1q0-0.1-0.1-0.1q0-0.1 0-0.2q-0.1 0-0.1-0.1q0-0.1-0.1-0.2q0-0.1-0.1-0.2q0-0.1 0-0.2q-0.1-0.1-0.1-0.2c0 0-0.7-1.8-0.7-1.8q0 0 0 0zm-13.2-11q0 0.4 0 0.7q0 0.4 0.1 0.8q0.1 0.3 0.1 0.7q0.1 0.3 0.3 0.7q0.4 1.3 1.3 2.2q0.2 0.3 0.5 0.5q0.2 0.2 0.5 0.4q0.2 0.2 0.5 0.4q0.3 0.1 0.6 0.3q1.2 0.5 2.7 0.5q1.5 0 2.8-0.5q0.3-0.1 0.6-0.3q0.3-0.1 0.6-0.3q0.3-0.2 0.6-0.4q0.2-0.2 0.5-0.5q0.2-0.2 0.4-0.4q0.2-0.3 0.4-0.6q0.2-0.3 0.4-0.5q0.2-0.3 0.3-0.6q0.6-1.3 0.7-2.8v-0.3q0-0.3-0.1-0.7q0-0.4-0.1-0.7q0-0.4-0.1-0.7q-0.1-0.3-0.3-0.7q-0.1-0.3-0.3-0.6q-0.1-0.3-0.3-0.6q-0.2-0.3-0.4-0.6q-0.3-0.3-0.5-0.5q-0.3-0.3-0.5-0.5q-0.3-0.2-0.6-0.4q-0.3-0.2-0.6-0.4q-0.3-0.2-0.6-0.3q-0.3-0.2-0.7-0.3q-0.3-0.1-0.7-0.2q-0.4 0-0.7-0.1q-0.4 0-0.8 0q-1.5 0-2.7 0.6q-1.2 0.6-2.1 1.6q-0.2 0.2-0.4 0.5q-0.2 0.3-0.4 0.6q-0.1 0.3-0.3 0.6q-0.1 0.3-0.2 0.6q-0.2 0.4-0.2 0.7q-0.1 0.3-0.2 0.7q-0.1 0.4-0.1 0.7q0 0.4 0 0.7zm28.1-21.5q0-0.7 0.4-1.3q0.4-0.5 1.3-0.5h5.6q0.2 0 0.5 0.2q0.1 0 0.1 0q0.1 0.1 0.1 0.1q0.1 0.1 0.1 0.1q0.1 0.1 0.2 0.1q0.2 0.3 0.3 0.6q0.2 0.3 0.2 0.7v34.3q0 0.9-0.5 1.3q-0.5 0.5-1.3 0.5h-5.3q-0.9 0-1.3-0.5q-0.4-0.4-0.4-1.3zm38.7 32.6q-0.5 0.5-1 0.9q-0.5 0.4-1.1 0.8q-0.6 0.4-1.2 0.7q-0.6 0.3-1.2 0.5q-0.6 0.3-1.3 0.5q-0.7 0.2-1.3 0.3q-0.7 0.2-1.4 0.2q-0.7 0.1-1.4 0.1q-3.1 0-5.9-1.2q-0.7-0.2-1.4-0.6q-0.6-0.3-1.2-0.7q-0.6-0.4-1.2-0.9q-0.6-0.4-1.1-0.9q-0.6-0.6-1-1.1q-0.5-0.6-0.9-1.2q-0.5-0.6-0.8-1.2q-0.4-0.7-0.7-1.3q-1.2-2.8-1.2-6q0-2.1 0.5-4q0.1-0.4 0.2-0.9q0.2-0.4 0.4-0.9q0.1-0.4 0.3-0.9q0.2-0.4 0.5-0.8q0.2-0.4 0.4-0.8q0.3-0.4 0.6-0.8q0.2-0.4 0.5-0.7q0.3-0.4 0.7-0.7q0.3-0.4 0.6-0.7q0.4-0.3 0.7-0.6q0.4-0.3 0.8-0.6q0.4-0.3 0.8-0.5q0.4-0.3 0.8-0.5q0.4-0.2 0.9-0.4q0.4-0.2 0.9-0.4q0.4-0.1 0.9-0.3q0.5-0.1 0.9-0.2q0.5-0.1 1-0.2q0.5-0.1 1-0.1q0.5 0 1 0q2 0 3.7 0.5q1.8 0.5 3.4 1.4q1.6 0.9 2.9 2.2q0.3 0.3 0.6 0.7q0.3 0.3 0.6 0.7q0.3 0.3 0.6 0.7q0.2 0.3 0.4 0.7q0.3 0.4 0.5 0.8q0.2 0.4 0.4 0.8q0.2 0.4 0.3 0.8q0.2 0.5 0.3 0.9q0.5 1.7 0.5 3.6q0 1.2 0 1.9q0 0.8-0.4 1.2q-0.3 0.5-1 0.6q-0.8 0.2-2.2 0.2h-16.6q0.3 1.5 1 2.5q0.1 0.2 0.3 0.4q0.2 0.2 0.4 0.4q0.2 0.2 0.4 0.4q0.2 0.2 0.5 0.4q0.9 0.5 1.9 0.8q0.3 0.1 0.5 0.1q0.3 0 0.5 0.1q0.2 0 0.5 0q0.2 0 0.5 0q0.8 0 1.7-0.1q0.2-0.1 0.4-0.1q0.2-0.1 0.4-0.1q0.2-0.1 0.5-0.1q0.2-0.1 0.4-0.2q0.2-0.1 0.4-0.1q0.1-0.1 0.3-0.2q0.2-0.1 0.4-0.2q0.2-0.1 0.4-0.2q0.6-0.3 1.1-0.7q0.3-0.3 0.6-0.5q0.3-0.1 0.6-0.1q0.3 0 0.6 0.2q0.1 0 0.1 0.1q0.1 0.1 0.2 0.1q0.1 0.1 0.2 0.2q0.1 0.1 0.2 0.2l2.4 2.7q0.3 0.3 0.3 0.6q0.1 0.2 0.1 0.5q0 0.4-0.3 0.7q0 0.1-0.1 0.2q-0.1 0.1-0.1 0.2q-0.1 0-0.2 0.1q-0.1 0.1-0.2 0.1zm-11-19.1q-0.9 0-1.7 0.3q-0.3 0.1-0.5 0.2q-0.2 0.1-0.4 0.3q-0.2 0.1-0.4 0.2q-0.1 0.2-0.3 0.3q-0.8 0.6-1.3 1.4q-0.2 0.1-0.3 0.3q-0.1 0.2-0.3 0.4q-0.1 0.2-0.2 0.4q-0.1 0.2-0.2 0.4h11.7q-0.1-0.2-0.2-0.4q-0.1-0.2-0.2-0.5q-0.2-0.2-0.3-0.4q-0.2-0.2-0.3-0.4q-0.1-0.1-0.3-0.3q-0.1-0.2-0.3-0.4q-0.2-0.1-0.3-0.3q-0.2-0.1-0.4-0.3q-0.2-0.1-0.4-0.3q-0.2-0.1-0.4-0.2q-0.2-0.1-0.4-0.2q-0.2-0.1-0.4-0.2q-1-0.3-2.2-0.3z" /></svg>